<svg width="400" height="150" viewBox="0 0 400 150" xmlns="http://www.w3.org/2000/svg">
  <rect width="400" height="150" fill="#0D1117" rx="15"/>
  <g transform="translate(0, 25)">
    <g transform="translate(25, 0)"><svg width="16" height="16" viewBox="0 0 16 16" fill="#00ffa3"><path fill-rule="evenodd" d="M2 2.5A2.5 2.5 0 014.5 0h8.75a.75.75 0 01.75.75v12.5a.75.75 0 01-.75.75h-2.5a.75.75 0 110-1.5h1.75v-2h-8a1 1 0 00-.714 1.7.75.75 0 01-1.072 1.05A2.495 2.495 0 012 11.5v-9zm10.5-1h-8a1 1 0 00-1 1v6.708A2.486 2.486 0 014.5 9h8.5V1.5zm-3.25 7h-.5a.75.75 0 010-1.5h.5a.75.75 0 010 1.5zm-3-4h3.5a.75.75 0 010 1.5h-3.5a.75.75 0 010-1.5z"/></svg></g>
    <text x="48" y="13" fill="#00D9FF" font-size="16" font-weight="700" font-family="'Segoe UI', Ubuntu, 'Helvetica Neue', Sans-Serif">rank-analysis</text>
  </g>
  <text x="25" y="70" fill="#8B949E" font-size="13" font-family="'Segoe UI', Ubuntu, 'Helvetica Neue', Sans-Serif">基于Tauri 2 + Rust，构建的一个LOL 英雄联盟腾讯服战绩查询助手，创新式标签标记机制，一键分析的混子...</text>
  <g transform="translate(0, 120)">
    
      <circle cx="25" cy="0" r="6" fill="#dea584"/>
      <text x="37" y="4" fill="#8B949E" font-size="12" font-family="'Segoe UI', Ubuntu, 'Helvetica Neue', Sans-Serif">Rust</text>
    <g transform="translate(155, 0)">
      <svg width="16" height="16" viewBox="0 0 16 16" fill="#8B949E"><path fill-rule="evenodd" d="M8 .25a.75.75 0 01.673.418l1.882 3.815 4.21.612a.75.75 0 01.416 1.279l-3.046 2.97.719 4.192a.75.75 0 01-1.088.791L8 12.347l-3.766 1.98a.75.75 0 01-1.088-.79l.72-4.194L.818 6.374a.75.75 0 01.416-1.28l4.21-.611L7.327.668A.75.75 0 018 .25z"/></svg>
      <text x="20" y="4" fill="#8B949E" font-size="12" font-family="'Segoe UI', Ubuntu, 'Helvetica Neue', Sans-Serif">302</text>
    </g>
    <g transform="translate(215, 0)">
      <svg width="16" height="16" viewBox="0 0 16 16" fill="#8B949E"><path fill-rule="evenodd" d="M5 3.25a.75.75 0 11-1.5 0 .75.75 0 011.5 0zm0 2.122a2.25 2.25 0 10-1.5 0v.878A2.25 2.25 0 005.75 8.5h1.5v2.128a2.251 2.251 0 101.5 0V8.5h1.5a2.25 2.25 0 002.25-2.25v-.878a2.25 2.25 0 10-1.5 0v.878a.75.75 0 01-.75.75h-4.5A.75.75 0 015 6.25v-.878zm3.75 7.378a.75.75 0 11-1.5 0 .75.75 0 011.5 0zm3-8.75a.75.75 0 100-1.5.75.75 0 000 1.5z"/></svg>
      <text x="20" y="4" fill="#8B949E" font-size="12" font-family="'Segoe UI', Ubuntu, 'Helvetica Neue', Sans-Serif">29</text>
    </g>
  </g>
</svg>
