<svg width="495" height="195" viewBox="0 0 495 195" xmlns="http://www.w3.org/2000/svg">
  <rect width="495" height="195" fill="#0D1117" rx="15"/>
  <text x="25" y="30" fill="#00D9FF" font-size="18" font-weight="700" font-family="'Segoe UI', Ubuntu, 'Helvetica Neue', Sans-Serif">wnzzer&apos;s GitHub Stats</text>
  
    <g transform="translate(0, 48)">
      <g transform="translate(25, 0)"><svg width="16" height="16" viewBox="0 0 16 16" fill="#00ffa3"><path fill-rule="evenodd" d="M8 .25a.75.75 0 01.673.418l1.882 3.815 4.21.612a.75.75 0 01.416 1.279l-3.046 2.97.719 4.192a.75.75 0 01-1.088.791L8 12.347l-3.766 1.98a.75.75 0 01-1.088-.79l.72-4.194L.818 6.374a.75.75 0 01.416-1.28l4.21-.611L7.327.668A.75.75 0 018 .25z"/></svg></g>
      <text x="50" y="12.5" fill="#8B949E" font-size="14" font-family="'Segoe UI', Ubuntu, 'Helvetica Neue', Sans-Serif">Total Stars Earned:</text>
      <text x="350" y="12.5" fill="#C9D1D9" font-size="14" font-weight="700" font-family="'Segoe UI', Ubuntu, 'Helvetica Neue', Sans-Serif" text-anchor="end">311</text>
    </g>
    <g transform="translate(0, 73)">
      <g transform="translate(25, 0)"><svg width="16" height="16" viewBox="0 0 16 16" fill="#00ffa3"><path fill-rule="evenodd" d="M1.643 3.143L.427 1.927A.25.25 0 000 2.104V5.75c0 .138.112.25.25.25h3.646a.25.25 0 00.177-.427L2.715 4.215a6.5 6.5 0 11-1.18 4.458.75.75 0 10-1.493.154 8.001 8.001 0 101.6-5.684zM7.75 4a.75.75 0 01.75.75v2.992l2.028.812a.75.75 0 01-.557 1.392l-2.5-1A.75.75 0 017 8.25v-3.5A.75.75 0 017.75 4z"/></svg></g>
      <text x="50" y="12.5" fill="#8B949E" font-size="14" font-family="'Segoe UI', Ubuntu, 'Helvetica Neue', Sans-Serif">Total Commits:</text>
      <text x="350" y="12.5" fill="#C9D1D9" font-size="14" font-weight="700" font-family="'Segoe UI', Ubuntu, 'Helvetica Neue', Sans-Serif" text-anchor="end">336</text>
    </g>
    <g transform="translate(0, 98)">
      <g transform="translate(25, 0)"><svg width="16" height="16" viewBox="0 0 16 16" fill="#00ffa3"><path fill-rule="evenodd" d="M7.177 3.073L9.573.677A.25.25 0 0110 .854v4.792a.25.25 0 01-.427.177L7.177 3.427a.25.25 0 010-.354zM3.75 2.5a.75.75 0 100 1.5.75.75 0 000-1.5zm-2.25.75a2.25 2.25 0 113 2.122v5.256a2.251 2.251 0 11-1.5 0V5.372A2.25 2.25 0 011.5 3.25zM11 2.5h-1V4h1a1 1 0 011 1v5.628a2.251 2.251 0 101.5 0V5A2.5 2.5 0 0011 2.5zm1 10.25a.75.75 0 111.5 0 .75.75 0 01-1.5 0zM3.75 12a.75.75 0 100 1.5.75.75 0 000-1.5z"/></svg></g>
      <text x="50" y="12.5" fill="#8B949E" font-size="14" font-family="'Segoe UI', Ubuntu, 'Helvetica Neue', Sans-Serif">Total PRs:</text>
      <text x="350" y="12.5" fill="#C9D1D9" font-size="14" font-weight="700" font-family="'Segoe UI', Ubuntu, 'Helvetica Neue', Sans-Serif" text-anchor="end">2</text>
    </g>
    <g transform="translate(0, 123)">
      <g transform="translate(25, 0)"><svg width="16" height="16" viewBox="0 0 16 16" fill="#00ffa3"><path fill-rule="evenodd" d="M8 1.5a6.5 6.5 0 100 13 6.5 6.5 0 000-13zM0 8a8 8 0 1116 0A8 8 0 010 8zm9 3a1 1 0 11-2 0 1 1 0 012 0zm-.25-6.25a.75.75 0 00-1.5 0v3.5a.75.75 0 001.5 0v-3.5z"/></svg></g>
      <text x="50" y="12.5" fill="#8B949E" font-size="14" font-family="'Segoe UI', Ubuntu, 'Helvetica Neue', Sans-Serif">Total Issues:</text>
      <text x="350" y="12.5" fill="#C9D1D9" font-size="14" font-weight="700" font-family="'Segoe UI', Ubuntu, 'Helvetica Neue', Sans-Serif" text-anchor="end">2</text>
    </g>
    <g transform="translate(0, 148)">
      <g transform="translate(25, 0)"><svg width="16" height="16" viewBox="0 0 16 16" fill="#00ffa3"><path fill-rule="evenodd" d="M2 2.5A2.5 2.5 0 014.5 0h8.75a.75.75 0 01.75.75v12.5a.75.75 0 01-.75.75h-2.5a.75.75 0 110-1.5h1.75v-2h-8a1 1 0 00-.714 1.7.75.75 0 01-1.072 1.05A2.495 2.495 0 012 11.5v-9zm10.5-1h-8a1 1 0 00-1 1v6.708A2.486 2.486 0 014.5 9h8.5V1.5zm-3.25 7h-.5a.75.75 0 010-1.5h.5a.75.75 0 010 1.5zm-3-4h3.5a.75.75 0 010 1.5h-3.5a.75.75 0 010-1.5z"/></svg></g>
      <text x="50" y="12.5" fill="#8B949E" font-size="14" font-family="'Segoe UI', Ubuntu, 'Helvetica Neue', Sans-Serif">Contributed to:</text>
      <text x="350" y="12.5" fill="#C9D1D9" font-size="14" font-weight="700" font-family="'Segoe UI', Ubuntu, 'Helvetica Neue', Sans-Serif" text-anchor="end">1</text>
    </g>
  
    <g transform="translate(430, 100)">
      <circle r="40" fill="none" stroke="#00D9FF" stroke-width="6" opacity="0.2"/>
      <circle r="40" fill="none" stroke="#00D9FF" stroke-width="6"
              stroke-dasharray="175 251"
              transform="rotate(-90)" stroke-linecap="round"/>
      <text x="0" y="8" fill="#00D9FF" font-size="24" font-weight="700"
            font-family="'Segoe UI', Ubuntu, 'Helvetica Neue', Sans-Serif" text-anchor="middle">A</text>
    </g>
</svg>
