<svg width="350" height="348" viewBox="0 0 350 348" xmlns="http://www.w3.org/2000/svg">
  <rect width="350" height="348" fill="#0D1117" rx="15"/>
  <text x="25" y="30" fill="#00D9FF" font-size="18" font-weight="700" font-family="'Segoe UI', Ubuntu, 'Helvetica Neue', Sans-Serif">Most Used Languages</text>
  <g>
      <circle cx="175" cy="130" r="70" fill="none"
              stroke="#00ADD8" stroke-width="30"
              stroke-dasharray="259.50 180.33"
              stroke-dashoffset="0.00"
              transform="rotate(-90, 175, 130)"/>
      <circle cx="175" cy="130" r="70" fill="none"
              stroke="#3178c6" stroke-width="30"
              stroke-dasharray="71.25 368.57"
              stroke-dashoffset="-259.50"
              transform="rotate(-90, 175, 130)"/>
      <circle cx="175" cy="130" r="70" fill="none"
              stroke="#dea584" stroke-width="30"
              stroke-dasharray="48.38 391.44"
              stroke-dashoffset="-330.75"
              transform="rotate(-90, 175, 130)"/>
      <circle cx="175" cy="130" r="70" fill="none"
              stroke="#41b883" stroke-width="30"
              stroke-dasharray="28.15 411.67"
              stroke-dashoffset="-379.13"
              transform="rotate(-90, 175, 130)"/>
      <circle cx="175" cy="130" r="70" fill="none"
              stroke="#f1e05a" stroke-width="30"
              stroke-dasharray="15.83 423.99"
              stroke-dashoffset="-407.28"
              transform="rotate(-90, 175, 130)"/>
      <circle cx="175" cy="130" r="70" fill="none"
              stroke="#c6538c" stroke-width="30"
              stroke-dasharray="6.60 433.23"
              stroke-dashoffset="-423.11"
              transform="rotate(-90, 175, 130)"/>
      <circle cx="175" cy="130" r="70" fill="none"
              stroke="#b07219" stroke-width="30"
              stroke-dasharray="3.96 435.86"
              stroke-dashoffset="-429.71"
              transform="rotate(-90, 175, 130)"/>
      <circle cx="175" cy="130" r="70" fill="none"
              stroke="#3572A5" stroke-width="30"
              stroke-dasharray="3.08 436.74"
              stroke-dashoffset="-433.67"
              transform="rotate(-90, 175, 130)"/>
  </g>
  <g>
      <g transform="translate(25, 245)">
        <circle cx="6" cy="-4" r="6" fill="#00ADD8"/>
        <text x="18" y="0" fill="#8B949E" font-size="12" font-family="'Segoe UI', Ubuntu, 'Helvetica Neue', Sans-Serif">Go 59.0%</text>
      </g>
      <g transform="translate(200, 245)">
        <circle cx="6" cy="-4" r="6" fill="#3178c6"/>
        <text x="18" y="0" fill="#8B949E" font-size="12" font-family="'Segoe UI', Ubuntu, 'Helvetica Neue', Sans-Serif">TypeScript 16.2%</text>
      </g>
      <g transform="translate(25, 267)">
        <circle cx="6" cy="-4" r="6" fill="#dea584"/>
        <text x="18" y="0" fill="#8B949E" font-size="12" font-family="'Segoe UI', Ubuntu, 'Helvetica Neue', Sans-Serif">Rust 11.0%</text>
      </g>
      <g transform="translate(200, 267)">
        <circle cx="6" cy="-4" r="6" fill="#41b883"/>
        <text x="18" y="0" fill="#8B949E" font-size="12" font-family="'Segoe UI', Ubuntu, 'Helvetica Neue', Sans-Serif">Vue 6.4%</text>
      </g>
      <g transform="translate(25, 289)">
        <circle cx="6" cy="-4" r="6" fill="#f1e05a"/>
        <text x="18" y="0" fill="#8B949E" font-size="12" font-family="'Segoe UI', Ubuntu, 'Helvetica Neue', Sans-Serif">JavaScript 3.6%</text>
      </g>
      <g transform="translate(200, 289)">
        <circle cx="6" cy="-4" r="6" fill="#c6538c"/>
        <text x="18" y="0" fill="#8B949E" font-size="12" font-family="'Segoe UI', Ubuntu, 'Helvetica Neue', Sans-Serif">SCSS 1.5%</text>
      </g>
      <g transform="translate(25, 311)">
        <circle cx="6" cy="-4" r="6" fill="#b07219"/>
        <text x="18" y="0" fill="#8B949E" font-size="12" font-family="'Segoe UI', Ubuntu, 'Helvetica Neue', Sans-Serif">Java 0.9%</text>
      </g>
      <g transform="translate(200, 311)">
        <circle cx="6" cy="-4" r="6" fill="#3572A5"/>
        <text x="18" y="0" fill="#8B949E" font-size="12" font-family="'Segoe UI', Ubuntu, 'Helvetica Neue', Sans-Serif">Python 0.7%</text>
      </g>
  </g>
</svg>
