<svg width="350" height="348" viewBox="0 0 350 348" xmlns="http://www.w3.org/2000/svg">
  <rect width="350" height="348" fill="#0D1117" rx="15"/>
  <text x="25" y="30" fill="#00D9FF" font-size="18" font-weight="700" font-family="'Segoe UI', Ubuntu, 'Helvetica Neue', Sans-Serif">Most Used Languages</text>
  <g>
      <circle cx="175" cy="130" r="70" fill="none"
              stroke="#3572A5" stroke-width="30"
              stroke-dasharray="190.00 249.82"
              stroke-dashoffset="0.00"
              transform="rotate(-90, 175, 130)"/>
      <circle cx="175" cy="130" r="70" fill="none"
              stroke="#3178c6" stroke-width="30"
              stroke-dasharray="97.64 342.18"
              stroke-dashoffset="-190.00"
              transform="rotate(-90, 175, 130)"/>
      <circle cx="175" cy="130" r="70" fill="none"
              stroke="#41b883" stroke-width="30"
              stroke-dasharray="43.10 396.72"
              stroke-dashoffset="-287.64"
              transform="rotate(-90, 175, 130)"/>
      <circle cx="175" cy="130" r="70" fill="none"
              stroke="#b07219" stroke-width="30"
              stroke-dasharray="29.03 410.79"
              stroke-dashoffset="-330.75"
              transform="rotate(-90, 175, 130)"/>
      <circle cx="175" cy="130" r="70" fill="none"
              stroke="#dea584" stroke-width="30"
              stroke-dasharray="28.15 411.67"
              stroke-dashoffset="-359.78"
              transform="rotate(-90, 175, 130)"/>
      <circle cx="175" cy="130" r="70" fill="none"
              stroke="#f1e05a" stroke-width="30"
              stroke-dasharray="17.59 422.23"
              stroke-dashoffset="-387.92"
              transform="rotate(-90, 175, 130)"/>
      <circle cx="175" cy="130" r="70" fill="none"
              stroke="#00ADD8" stroke-width="30"
              stroke-dasharray="12.75 427.07"
              stroke-dashoffset="-405.52"
              transform="rotate(-90, 175, 130)"/>
      <circle cx="175" cy="130" r="70" fill="none"
              stroke="#e34c26" stroke-width="30"
              stroke-dasharray="7.04 432.79"
              stroke-dashoffset="-418.27"
              transform="rotate(-90, 175, 130)"/>
  </g>
  <g>
      <g transform="translate(25, 245)">
        <circle cx="6" cy="-4" r="6" fill="#3572A5"/>
        <text x="18" y="0" fill="#8B949E" font-size="12" font-family="'Segoe UI', Ubuntu, 'Helvetica Neue', Sans-Serif">Python 43.2%</text>
      </g>
      <g transform="translate(200, 245)">
        <circle cx="6" cy="-4" r="6" fill="#3178c6"/>
        <text x="18" y="0" fill="#8B949E" font-size="12" font-family="'Segoe UI', Ubuntu, 'Helvetica Neue', Sans-Serif">TypeScript 22.2%</text>
      </g>
      <g transform="translate(25, 267)">
        <circle cx="6" cy="-4" r="6" fill="#41b883"/>
        <text x="18" y="0" fill="#8B949E" font-size="12" font-family="'Segoe UI', Ubuntu, 'Helvetica Neue', Sans-Serif">Vue 9.8%</text>
      </g>
      <g transform="translate(200, 267)">
        <circle cx="6" cy="-4" r="6" fill="#b07219"/>
        <text x="18" y="0" fill="#8B949E" font-size="12" font-family="'Segoe UI', Ubuntu, 'Helvetica Neue', Sans-Serif">Java 6.6%</text>
      </g>
      <g transform="translate(25, 289)">
        <circle cx="6" cy="-4" r="6" fill="#dea584"/>
        <text x="18" y="0" fill="#8B949E" font-size="12" font-family="'Segoe UI', Ubuntu, 'Helvetica Neue', Sans-Serif">Rust 6.4%</text>
      </g>
      <g transform="translate(200, 289)">
        <circle cx="6" cy="-4" r="6" fill="#f1e05a"/>
        <text x="18" y="0" fill="#8B949E" font-size="12" font-family="'Segoe UI', Ubuntu, 'Helvetica Neue', Sans-Serif">JavaScript 4.0%</text>
      </g>
      <g transform="translate(25, 311)">
        <circle cx="6" cy="-4" r="6" fill="#00ADD8"/>
        <text x="18" y="0" fill="#8B949E" font-size="12" font-family="'Segoe UI', Ubuntu, 'Helvetica Neue', Sans-Serif">Go 2.9%</text>
      </g>
      <g transform="translate(200, 311)">
        <circle cx="6" cy="-4" r="6" fill="#e34c26"/>
        <text x="18" y="0" fill="#8B949E" font-size="12" font-family="'Segoe UI', Ubuntu, 'Helvetica Neue', Sans-Serif">HTML 1.6%</text>
      </g>
  </g>
</svg>
